HIERARCHY
ROOT hip
{
OFFSET 0.08 99.02 3.63
CHANNELS 6 Xposition Yposition Zposition Zrotation Xrotation Yrotation
JOINT abdomen
{
OFFSET -0.17 7.23 0
CHANNELS 6 Xposition Yposition Zposition Zrotation Xrotation Yrotation
JOINT chest
{
OFFSET -0 16.55 -0
CHANNELS 6 Xposition Yposition Zposition Zrotation Xrotation Yrotation
JOINT neck
{
OFFSET 0 34.21 -0
CHANNELS 6 Xposition Yposition Zposition Zrotation Xrotation Yrotation
JOINT head
{
OFFSET 0 6.29 0
CHANNELS 6 Xposition Yposition Zposition Zrotation Xrotation Yrotation
End Site
{
OFFSET 0 0 0
}
}
}
JOINT lCollar
{
OFFSET 4.06 26.61 -1.12
CHANNELS 6 Xposition Yposition Zposition Zrotation Xrotation Yrotation
JOINT lShldr
{
OFFSET 14.17 0 0
CHANNELS 6 Xposition Yposition Zposition Zrotation Xrotation Yrotation
JOINT lForeArm
{
OFFSET 26.12 0 0
CHANNELS 6 Xposition Yposition Zposition Zrotation Xrotation Yrotation
JOINT lHand
{
OFFSET 27.71 0 0
CHANNELS 6 Xposition Yposition Zposition Zrotation Xrotation Yrotation
JOINT lThumb1
{
OFFSET 2.29 -0.46 1.83
CHANNELS 6 Xposition Yposition Zposition Zrotation Xrotation Yrotation
JOINT lThumb2
{
OFFSET 5.29 0 0
CHANNELS 6 Xposition Yposition Zposition Zrotation Xrotation Yrotation
JOINT lThumb3
{
OFFSET 3.01 0 0
CHANNELS 6 Xposition Yposition Zposition Zrotation Xrotation Yrotation
End Site
{
OFFSET 0 0 0
}
}
}
}
JOINT lIndex1
{
OFFSET 9.37 0.29 2.59
CHANNELS 6 Xposition Yposition Zposition Zrotation Xrotation Yrotation
JOINT lIndex2
{
OFFSET 4.34 0 0
CHANNELS 6 Xposition Yposition Zposition Zrotation Xrotation Yrotation
JOINT lIndex3
{
OFFSET 2.16 0 0
CHANNELS 6 Xposition Yposition Zposition Zrotation Xrotation Yrotation
End Site
{
OFFSET 0 0 0
}
}
}
}
JOINT lMid1
{
OFFSET 9.47 0.83 0.29
CHANNELS 6 Xposition Yposition Zposition Zrotation Xrotation Yrotation
JOINT lMid2
{
OFFSET 4.77 0 0
CHANNELS 6 Xposition Yposition Zposition Zrotation Xrotation Yrotation
JOINT lMid3
{
OFFSET 2.87 0 0
CHANNELS 6 Xposition Yposition Zposition Zrotation Xrotation Yrotation
End Site
{
OFFSET 0 0 0
}
}
}
}
JOINT lRing1
{
OFFSET 8.65 1.01 -1.70
CHANNELS 6 Xposition Yposition Zposition Zrotation Xrotation Yrotation
JOINT lRing2
{
OFFSET 4.54 0 0
CHANNELS 6 Xposition Yposition Zposition Zrotation Xrotation Yrotation
JOINT lRing3
{
OFFSET 2.50 0 0
CHANNELS 6 Xposition Yposition Zposition Zrotation Xrotation Yrotation
End Site
{
OFFSET 0 0 0
}
}
}
}
JOINT lPinky1
{
OFFSET 7.69 0.66 -3.90
CHANNELS 6 Xposition Yposition Zposition Zrotation Xrotation Yrotation
JOINT lPinky2
{
OFFSET 3.21 0 0
CHANNELS 6 Xposition Yposition Zposition Zrotation Xrotation Yrotation
JOINT lPinky3
{
OFFSET 1.92 0 0
CHANNELS 6 Xposition Yposition Zposition Zrotation Xrotation Yrotation
End Site
{
OFFSET 0 0 0
}
}
}
}
}
}
}
}
JOINT rCollar
{
OFFSET -4.06 26.61 -1.12
CHANNELS 6 Xposition Yposition Zposition Zrotation Xrotation Yrotation
JOINT rShldr
{
OFFSET -14.17 0 0
CHANNELS 6 Xposition Yposition Zposition Zrotation Xrotation Yrotation
JOINT rForeArm
{
OFFSET -26.12 0 0
CHANNELS 6 Xposition Yposition Zposition Zrotation Xrotation Yrotation
JOINT rHand
{
OFFSET -27.71 0 0
CHANNELS 6 Xposition Yposition Zposition Zrotation Xrotation Yrotation
JOINT rThumb1
{
OFFSET -2.29 -0.46 1.83
CHANNELS 6 Xposition Yposition Zposition Zrotation Xrotation Yrotation
JOINT rThumb2
{
OFFSET -5.29 0 0
CHANNELS 6 Xposition Yposition Zposition Zrotation Xrotation Yrotation
JOINT rThumb3
{
OFFSET -3.01 0 0
CHANNELS 6 Xposition Yposition Zposition Zrotation Xrotation Yrotation
End Site
{
OFFSET 0 0 0
}
}
}
}
JOINT rIndex1
{
OFFSET -9.37 0.29 2.59
CHANNELS 6 Xposition Yposition Zposition Zrotation Xrotation Yrotation
JOINT rIndex2
{
OFFSET -4.34 0 0
CHANNELS 6 Xposition Yposition Zposition Zrotation Xrotation Yrotation
JOINT rIndex3
{
OFFSET -2.16 0 0
CHANNELS 6 Xposition Yposition Zposition Zrotation Xrotation Yrotation
End Site
{
OFFSET 0 0 0
}
}
}
}
JOINT rMid1
{
OFFSET -9.47 0.83 0.29
CHANNELS 6 Xposition Yposition Zposition Zrotation Xrotation Yrotation
JOINT rMid2
{
OFFSET -4.77 0 0
CHANNELS 6 Xposition Yposition Zposition Zrotation Xrotation Yrotation
JOINT rMid3
{
OFFSET -2.87 0 0
CHANNELS 6 Xposition Yposition Zposition Zrotation Xrotation Yrotation
End Site
{
OFFSET 0 0 0
}
}
}
}
JOINT rRing1
{
OFFSET -8.65 1.01 -1.70
CHANNELS 6 Xposition Yposition Zposition Zrotation Xrotation Yrotation
JOINT rRing2
{
OFFSET -4.54 0 0
CHANNELS 6 Xposition Yposition Zposition Zrotation Xrotation Yrotation
JOINT rRing3
{
OFFSET -2.50 0 0
CHANNELS 6 Xposition Yposition Zposition Zrotation Xrotation Yrotation
End Site
{
OFFSET 0 0 0
}
}
}
}
JOINT rPinky1
{
OFFSET -7.69 0.66 -3.90
CHANNELS 6 Xposition Yposition Zposition Zrotation Xrotation Yrotation
JOINT rPinky2
{
OFFSET -3.21 0 0
CHANNELS 6 Xposition Yposition Zposition Zrotation Xrotation Yrotation
JOINT rPinky3
{
OFFSET -1.92 0 0
CHANNELS 6 Xposition Yposition Zposition Zrotation Xrotation Yrotation
End Site
{
OFFSET 0 0 0
}
}
}
}
}
}
}
}
}
}
JOINT lThigh
{
OFFSET 8.73 -0 0
CHANNELS 6 Xposition Yposition Zposition Zrotation Xrotation Yrotation
JOINT lShin
{
OFFSET 0 -46.66 0
CHANNELS 6 Xposition Yposition Zposition Zrotation Xrotation Yrotation
JOINT lFoot
{
OFFSET 0 -40.14 0
CHANNELS 6 Xposition Yposition Zposition Zrotation Xrotation Yrotation
JOINT lToes
{
OFFSET 0 -8.88 14.22
CHANNELS 6 Xposition Yposition Zposition Zrotation Xrotation Yrotation
End Site
{
OFFSET 0 0 0
}
}
}
}
}
JOINT rThigh
{
OFFSET -8.73 0 -0
CHANNELS 6 Xposition Yposition Zposition Zrotation Xrotation Yrotation
JOINT rShin
{
OFFSET 0 -46.66 0
CHANNELS 6 Xposition Yposition Zposition Zrotation Xrotation Yrotation
JOINT rFoot
{
OFFSET 0 -40.14 0
CHANNELS 6 Xposition Yposition Zposition Zrotation Xrotation Yrotation
JOINT rToes
{
OFFSET 0 -8.88 14.22
CHANNELS 6 Xposition Yposition Zposition Zrotation Xrotation Yrotation
End Site
{
OFFSET 0 0 0
}
}
}
}
}
}
MOTION
Frames: 4
Frame Time: 0.03
0.47 99.37 2.84 -8.66 -7.28 0.82 -1.11 7.15 -0 8.81 0.93 1.45 -0 16.55 -0 0.01 7.92 4.37 0 34.21 -0 0 0.56 0 0 6.29 0 -0.62 1.89 -8.76 4.06 26.61 -1.12 -14.25 -3.70 -3.95 14.17 0 0 -56.29 51.85 12.87 26.12 0 0 0 0 -47.90 27.71 0 0 -41.04 -27.56 37.59 2.29 -0.46 1.83 57.19 34.31 -81.43 5.29 0 0 0 0 0 3.01 0 0 0 0 0 9.37 0.29 2.59 24.22 -1.62 -3.34 4.34 0 0 0 0 0 2.16 0 0 0 0 0 9.47 0.83 0.29 16.96 14.27 7.03 4.77 0 0 0 0 0 2.87 0 0 -0 0 0 8.65 1.01 -1.70 23.79 3.43 14.82 4.54 0 0 0 0 0 2.50 0 0 0 0 0 7.69 0.66 -3.90 21.17 -7.01 16.30 3.21 0 0 0 0 0 1.92 0 0 0 0 0 -4.06 26.61 -1.12 14.13 -3.40 5.16 -14.17 0 0 34.47 -37.23 50.05 -26.12 0 0 0 0 119.89 -27.71 0 0 -47.01 70.94 -12.18 -2.29 -0.46 1.83 -57.19 34.31 81.43 -5.29 0 0 0 0 0 -3.01 0 0 0 0 0 -9.37 0.29 2.59 -24.22 -1.62 3.34 -4.34 0 0 0 0 0 -2.16 0 0 -0 0 0 -9.47 0.83 0.29 -16.96 14.27 -7.03 -4.77 0 0 0 0 0 -2.87 0 0 0 0 0 -8.65 1.01 -1.70 -23.79 3.43 -14.82 -4.54 0 0 0 0 0 -2.50 0 0 -0 0 0 -7.69 0.66 -3.90 -21.17 -7.01 -16.30 -3.21 0 0 -0 0 0 -1.92 0 0 0 0 0 8.73 -0 0 16.78 8.79 0.40 0 -46.66 0 0 4.13 0 0 -40.14 0 -1.79 7.37 -0.07 0 -8.88 14.22 0 0 0 -8.73 0 -0 0.50 11.79 6.99 0 -46.66 0 0 2.88 0 0 -40.14 0 1.41 4.53 0.03 0 -8.88 14.22 0 0 0 
0.47 99.36 2.84 -8.68 -7.28 0.86 -1.11 7.15 -0 8.83 0.94 1.45 -0 16.55 -0 0 7.93 4.39 0 34.21 -0 0 0.56 0 0 6.29 0 -0.53 1.96 -8.81 4.06 26.61 -1.12 -14.24 -3.69 -3.98 14.17 0 0 -56.26 51.93 12.83 26.12 0 0 0 0 -47.99 27.71 0 0 -40.78 -27.69 37.50 2.29 -0.46 1.83 57.19 34.31 -81.43 5.29 0 0 0 0 0 3.01 0 0 0 0 0 9.37 0.29 2.59 24.22 -1.62 -3.34 4.34 0 0 0 0 0 2.16 0 0 0 0 0 9.47 0.83 0.29 16.96 14.27 7.03 4.77 0 0 0 0 0 2.87 0 0 -0 0 0 8.65 1.01 -1.70 23.79 3.43 14.82 4.54 0 0 0 0 0 2.50 0 0 0 0 0 7.69 0.66 -3.90 21.17 -7.01 16.30 3.21 0 0 0 0 0 1.92 0 0 0 0 0 -4.06 26.61 -1.12 14.14 -3.39 5.20 -14.17 0 0 34.39 -37.27 49.93 -26.12 0 0 0 0 119.77 -27.71 0 0 -48.38 70 -10.42 -2.29 -0.46 1.83 -57.19 34.31 81.43 -5.29 0 0 0 0 0 -3.01 0 0 0 0 0 -9.37 0.29 2.59 -24.22 -1.62 3.34 -4.34 0 0 0 0 0 -2.16 0 0 -0 0 0 -9.47 0.83 0.29 -16.96 14.27 -7.03 -4.77 0 0 0 0 0 -2.87 0 0 0 0 0 -8.65 1.01 -1.70 -23.79 3.43 -14.82 -4.54 0 0 0 0 0 -2.50 0 0 -0 0 0 -7.69 0.66 -3.90 -21.17 -7.01 -16.30 -3.21 0 0 -0 0 0 -1.92 0 0 0 0 0 8.73 -0 0 16.81 8.78 0.42 0 -46.66 0 0 4.13 0 0 -40.14 0 -1.79 7.37 -0.07 0 -8.88 14.22 0 0 0 -8.73 0 -0 0.51 11.81 7.01 0 -46.66 0 0 2.85 0 0 -40.14 0 1.39 4.54 0.03 0 -8.88 14.22 0 0 0 
0.46 99.35 2.84 -8.70 -7.29 0.87 -1.12 7.15 -0 8.84 0.95 1.45 -0 16.55 0 -0 7.94 4.41 0 34.21 -0 0 0.56 0 0 6.29 0 -0.43 2.06 -8.82 4.06 26.61 -1.12 -14.23 -3.69 -4.01 14.17 0 0 -56.24 52.01 12.79 26.12 0 0 0 0 -48.08 27.71 0 0 -40.50 -27.83 37.41 2.29 -0.46 1.83 57.19 34.31 -81.43 5.29 0 0 0 0 0 3.01 0 0 0 0 0 9.37 0.29 2.59 24.22 -1.62 -3.34 4.34 0 0 0 0 0 2.16 0 0 0 0 0 9.47 0.83 0.29 16.96 14.27 7.03 4.77 0 0 0 0 0 2.87 0 0 -0 0 0 8.65 1.01 -1.70 23.79 3.43 14.82 4.54 0 0 0 0 0 2.50 0 0 0 0 0 7.69 0.66 -3.90 21.17 -7.01 16.30 3.21 0 0 0 0 0 1.92 0 0 0 0 0 -4.06 26.61 -1.12 14.16 -3.38 5.23 -14.17 0 0 34.30 -37.32 49.81 -26.12 0 0 0 0 119.81 -27.71 0 0 -48.84 69.79 -9.77 -2.29 -0.46 1.83 -57.19 34.31 81.43 -5.29 0 0 0 0 0 -3.01 0 0 0 0 0 -9.37 0.29 2.59 -24.22 -1.62 3.34 -4.34 0 0 0 0 0 -2.16 0 0 -0 0 0 -9.47 0.83 0.29 -16.96 14.27 -7.03 -4.77 0 0 0 0 0 -2.87 0 0 0 0 0 -8.65 1.01 -1.70 -23.79 3.43 -14.82 -4.54 0 0 0 0 0 -2.50 0 0 -0 0 0 -7.69 0.66 -3.90 -21.17 -7.01 -16.30 -3.21 0 0 -0 0 0 -1.92 0 0 0 0 0 8.73 -0 0 16.84 8.77 0.44 0 -46.66 0 0 4.12 0 0 -40.14 0 -1.78 7.38 -0.07 0 -8.88 14.22 0 0 0 -8.73 0 -0 0.54 11.82 7.04 0 -46.66 0 0 2.82 0 0 -40.14 0 1.38 4.55 0.02 0 -8.88 14.22 0 0 0 
0.46 99.34 2.84 -8.72 -7.28 0.86 -1.12 7.15 -0 8.85 0.96 1.46 -0 16.55 0 -0.02 7.95 4.43 0 34.21 -0 0 0.56 0 0 6.29 0 -0.35 2.17 -8.82 4.06 26.61 -1.12 -14.21 -3.68 -4.03 14.17 0 0 -56.21 52.08 12.76 26.12 0 0 0 0 -48.16 27.71 0 0 -40.22 -27.96 37.31 2.29 -0.46 1.83 57.19 34.31 -81.43 5.29 0 0 0 0 0 3.01 0 0 0 0 0 9.37 0.29 2.59 24.22 -1.62 -3.34 4.34 0 0 0 0 0 2.16 0 0 0 0 0 9.47 0.83 0.29 16.96 14.27 7.03 4.77 0 0 0 0 0 2.87 0 0 -0 0 0 8.65 1.01 -1.70 23.79 3.43 14.82 4.54 0 0 0 0 0 2.50 0 0 0 0 0 7.69 0.66 -3.90 21.17 -7.01 16.30 3.21 0 0 0 0 0 1.92 0 0 0 0 0 -4.06 26.61 -1.12 14.19 -3.37 5.25 -14.17 0 0 34.21 -37.38 49.68 -26.12 0 0 0 0 119.99 -27.71 0 0 -48.67 70.22 -9.93 -2.29 -0.46 1.83 -57.19 34.31 81.43 -5.29 0 0 0 0 0 -3.01 0 0 0 0 0 -9.37 0.29 2.59 -24.22 -1.62 3.34 -4.34 0 0 0 0 0 -2.16 0 0 -0 0 0 -9.47 0.83 0.29 -16.96 14.27 -7.03 -4.77 0 0 -0 0 0 -2.87 0 0 0 0 0 -8.65 1.01 -1.70 -23.79 3.43 -14.82 -4.54 0 0 0 0 0 -2.50 0 0 -0 0 0 -7.69 0.66 -3.90 -21.17 -7.01 -16.30 -3.21 0 0 -0 0 0 -1.92 0 0 0 0 0 8.73 -0 0 16.87 8.77 0.47 0 -46.66 0 0 4.10 0 0 -40.14 0 -1.78 7.40 -0.07 0 -8.88 14.22 0 0 0 -8.73 0 -0 0.56 11.82 7.07 0 -46.66 0 0 2.81 0 0 -40.14 0 1.38 4.56 0.02 0 -8.88 14.22 0 0 0 
